<svg width="152" height="75" viewBox="0 0 152 75" fill="none" xmlns="http://www.w3.org/2000/svg">
<g clip-path="url(#clip0_964_13675)">
<path d="M127 0.145782C114.122 8.82829 112.752 15.1296 111.636 17.0572C110.568 19.0335 109.772 26.825 107.923 30.5993C106.058 34.4222 99.2847 37.4352 97.3881 38.6987C95.5234 39.9622 92.8778 44.8704 90.7103 49.0983C73.4819 48.3855 64.0309 55.3834 49.4003 64.2603C54.0859 62.689 56.3012 61.5551 56.3012 61.5551C71.3144 55.7235 78.5022 50.4914 101.102 53.5853C101.277 53.5853 101.404 53.6825 101.548 53.7149C102.169 54.0713 102.392 54.8326 102.042 55.4644L93.4516 70.9827C93.0531 71.7441 92.2084 72.149 91.3637 71.9708C71.155 68.1155 55.2016 74.7732 40.5391 74.9838C28.8409 75.162 25 69.5572 25 69.298C25 69.1199 25.0956 69.0227 25.2709 69.0227C25.2709 69.0227 31.375 69.0227 41.7025 66.5443C53.4325 43.8175 63.8875 35.8639 75.2669 35.8639C75.2669 35.8639 86.6941 35.8639 89.7062 45.8909C93.34 39.46 94.2166 37.9212 94.2166 37.9212C95.0612 36.3985 99.7947 25.4158 107.987 15.0162C116.194 4.64902 122.394 2.07343 127 0.145782V0.145782Z" fill="#737373"/>
</g>
<defs>
<clipPath id="clip0_964_13675">
<rect width="102" height="75" fill="white" transform="translate(25)"/>
</clipPath>
</defs>
</svg>
