<svg width="151" height="43" viewBox="0 0 151 43" fill="none" xmlns="http://www.w3.org/2000/svg">
<g clip-path="url(#clip0_964_13678)">
<g clip-path="url(#clip1_964_13678)">
<path d="M50.5557 3.79318L43.5871 5.25682L43.5549 27.9114C43.5549 32.0955 46.7415 34.8 50.9741 34.8C53.3238 34.8 55.0458 34.3705 55.9954 33.8614V28.4841C55.078 28.85 50.5718 30.1545 50.5718 25.9864V15.9318H55.9954V9.91818H50.5718L50.5557 3.79318ZM64.8952 12.0023L64.4607 9.91818H58.2807V34.2909H65.4102V17.8886C67.1001 15.6932 69.9487 16.1227 70.866 16.4091V9.91818C69.9004 9.58409 66.569 8.96364 64.8952 12.0023ZM79.7498 0.5L72.5719 2.01136V7.77045L79.7498 6.25909V0.5ZM31.2271 17.0932C31.2271 15.9955 32.1605 15.5659 33.6572 15.55C35.8299 15.55 38.598 16.2023 40.7707 17.3636V10.7136C38.4049 9.79091 36.0391 9.425 33.6733 9.425C27.8796 9.425 24.0171 12.4159 24.0171 17.4114C24.0171 25.2386 34.8804 23.9659 34.8804 27.3386C34.8804 28.6432 33.7377 29.0727 32.1444 29.0727C29.7787 29.0727 26.7208 28.1023 24.3229 26.8136V33.1773C26.9783 34.3068 29.666 34.7841 32.1283 34.7841C38.0669 34.7841 42.1547 32.2705 42.1547 27.1795C42.1547 18.7636 31.2271 20.275 31.2271 17.0932V17.0932ZM127.001 22.3909C127.001 15.1523 123.46 9.44091 116.669 9.44091C109.877 9.44091 105.741 15.1523 105.741 22.3432C105.741 30.8545 110.618 34.7841 117.57 34.7841C120.982 34.7841 123.541 34.0205 125.488 32.9545V27.6409C123.541 28.6114 121.304 29.2 118.471 29.2C115.687 29.2 113.241 28.2295 112.919 24.9205H126.904C126.937 24.5545 127.001 23.075 127.001 22.3909V22.3909ZM112.855 19.7182C112.855 16.5364 114.834 15.2 116.621 15.2C118.375 15.2 120.242 16.5364 120.242 19.7182H112.855ZM94.6848 9.44091C91.8844 9.44091 90.0819 10.7455 89.0841 11.6523L88.714 9.90227H82.4213V42.4841L89.5669 40.9886L89.583 33.0023C90.613 33.75 92.1419 34.7841 94.6365 34.7841C99.7543 34.7841 104.421 31.0932 104.421 22.1205C104.438 13.9114 99.706 9.44091 94.6848 9.44091V9.44091ZM92.9788 28.9295C91.3051 28.9295 90.3073 28.325 89.6152 27.5932L89.5669 17.0932C90.3073 16.2818 91.3373 15.6932 92.9788 15.6932C95.586 15.6932 97.3885 18.5886 97.3885 22.2795C97.4046 26.0818 95.6343 28.9295 92.9788 28.9295ZM72.588 34.2909H79.7658V9.91818H72.588V34.2909Z" fill="#737373"/>
</g>
</g>
<defs>
<clipPath id="clip0_964_13678">
<rect width="151" height="42" fill="white" transform="translate(0 0.5)"/>
</clipPath>
<clipPath id="clip1_964_13678">
<rect width="103" height="42" fill="white" transform="translate(24 0.5)"/>
</clipPath>
</defs>
</svg>
