<svg width="151" height="63" viewBox="0 0 151 63" fill="none" xmlns="http://www.w3.org/2000/svg">
<g clip-path="url(#clip0_964_13681)">
<g clip-path="url(#clip1_964_13681)">
<path d="M52.8872 22.9887C52.7706 26.6267 54.6044 28.2378 54.6497 29.2609C54.6281 29.4692 54.5566 29.6693 54.441 29.8445C54.3255 30.0197 54.1693 30.1649 53.9856 30.268L51.912 31.7072C51.6437 31.8937 51.3274 32.0007 51 32.0156C50.9304 32.0124 49.6733 32.3095 47.6824 27.9021C46.4677 29.4054 44.9223 30.6133 43.1643 31.4332C41.4063 32.2531 39.4824 32.6633 37.54 32.6324C34.9027 32.7753 27.7555 31.1483 28.1233 23.6038C27.8657 17.4552 33.6408 13.6357 39.6135 13.9585C40.7636 13.9617 43.1125 14.0179 47.2256 14.9656V12.4567C47.6613 8.20665 44.8443 4.90908 39.9666 5.4038C39.5778 5.4054 36.8239 5.32349 32.5408 7.02768C31.3486 7.57058 31.1963 7.48064 30.7994 7.48064C29.599 7.48064 30.0931 4.03048 30.3231 3.59359C31.1671 2.56561 36.1322 0.64618 41.005 0.673486C44.2631 0.387784 47.5037 1.3848 50.0264 3.44903C51.0519 4.58636 51.8343 5.91798 52.3262 7.36347C52.8182 8.80895 53.0096 10.3383 52.8889 11.8592L52.8872 22.9887V22.9887ZM38.8877 28.1912C44.1412 28.1157 46.3654 24.9836 46.8724 23.2971C47.2709 21.6828 47.2045 20.6613 47.2045 18.896C45.638 18.5234 43.3831 18.117 40.796 18.1138C38.3418 17.9307 33.8595 19.0181 34.0344 23.2955C33.8335 25.9923 35.8358 28.339 38.8877 28.1912V28.1912ZM66.5757 31.8935C65.3024 32.0092 64.7095 31.1129 64.5216 30.2279L56.4543 3.78152C56.2972 3.33499 56.1935 2.874 56.1433 2.40338C56.1136 2.20936 56.1627 2.01155 56.28 1.85343C56.3972 1.69531 56.573 1.58982 56.7686 1.56012C56.8075 1.55369 56.4236 1.56012 60.373 1.56012C61.7953 1.41877 62.2586 2.52867 62.406 3.22577L68.1924 25.8461L73.5641 3.22577C73.65 2.70856 74.0404 1.44768 75.6376 1.581H78.4175C78.769 1.55209 80.2172 1.50069 80.4715 3.24665L85.8854 26.1561L91.8581 3.24665C91.9358 2.89649 92.2987 1.42038 93.9122 1.581H97.1067C97.2444 1.56012 98.1029 1.45089 97.9571 2.95913C97.8875 3.25628 98.5095 1.24691 89.412 30.2488C89.2257 31.1338 88.6312 32.0301 87.3579 31.9144H84.3302C82.558 32.0991 82.3037 30.3628 82.2761 30.1877L76.9044 8.16167L71.5943 30.1652C71.5684 30.3403 71.314 32.0766 69.5402 31.8919H66.5757V31.8935ZM110.878 32.7978C109.925 32.7994 105.383 32.7496 101.586 30.8238C101.208 30.665 100.885 30.3984 100.66 30.0578C100.435 29.7173 100.317 29.318 100.321 28.9108V27.1841C100.321 25.8269 101.325 26.0758 101.751 26.238C103.377 26.8902 104.421 27.3849 106.418 27.78C112.355 28.9895 114.966 27.4106 115.606 27.0604C117.737 25.806 117.905 22.9357 116.457 21.4467C114.759 20.0348 113.949 19.9818 107.85 18.0736C107.098 17.8664 100.771 15.8876 100.756 9.66349C100.658 5.12753 104.814 0.639755 112.018 0.676698C114.071 0.675092 119.54 1.34007 121.02 3.18561C121.239 3.52131 121.347 3.91644 121.331 4.31639V5.94027C121.331 6.65343 121.069 7.01001 120.542 7.01001C119.293 6.87188 117.077 5.21587 112.579 5.28333C111.463 5.22551 106.117 5.4295 106.357 9.29406C106.287 12.3394 110.667 13.4815 111.168 13.6132C117.074 15.3752 119.049 15.6675 121.393 18.3644C124.169 21.9382 122.673 26.1224 122.097 27.2692C119.007 33.2909 111.014 32.801 110.878 32.7978V32.7978ZM117.39 49.6406C106.045 57.948 89.5772 62.3699 75.5161 62.3699C56.5435 62.494 38.2103 55.5768 24.1204 42.978C23.0626 42.032 23.9957 40.7358 25.2819 41.457C40.9118 50.3219 58.6081 54.9799 76.6145 54.9685C90.0611 54.897 103.361 52.1922 115.751 47.0097C117.659 46.2065 119.277 48.2625 117.39 49.6406V49.6406ZM122.119 44.2935C120.667 42.4432 112.516 43.4294 108.866 43.8615C107.766 43.9851 107.58 43.0391 108.576 42.3404C115.067 37.8157 125.728 39.1119 126.952 40.633C128.175 42.1541 126.62 52.7455 120.544 57.805C119.611 58.5873 118.718 58.1745 119.133 57.1465C120.5 53.7333 123.57 46.1455 122.119 44.2935Z" fill="#737373"/>
</g>
</g>
<defs>
<clipPath id="clip0_964_13681">
<rect width="151" height="62" fill="white" transform="translate(0 0.5)"/>
</clipPath>
<clipPath id="clip1_964_13681">
<rect width="104" height="62" fill="white" transform="translate(23.5 0.5)"/>
</clipPath>
</defs>
</svg>
