<svg width="24" height="27" viewBox="0 0 24 27" fill="none" xmlns="http://www.w3.org/2000/svg">
<g clip-path="url(#clip0_964_12863)">
<path d="M23.71 2.21627C23.575 2.07657 23.4045 1.97985 23.2185 1.93748C23.0325 1.8951 22.8388 1.90884 22.66 1.97707L0.660001 10.2971C0.470269 10.3719 0.306921 10.505 0.191652 10.6787C0.0763829 10.8524 0.0146484 11.0584 0.0146484 11.2695C0.0146484 11.4805 0.0763829 11.6866 0.191652 11.8602C0.306921 12.0339 0.470269 12.167 0.660001 12.2419L10.26 16.2355L14.1 26.2195C14.1721 26.4081 14.2958 26.5707 14.4557 26.6871C14.6157 26.8035 14.8049 26.8687 15 26.8747C15.2021 26.8704 15.3982 26.8025 15.5624 26.6799C15.7266 26.5574 15.8513 26.386 15.92 26.1883L23.92 3.30828C23.9881 3.12427 24.0046 2.92392 23.9674 2.73058C23.9302 2.53724 23.8409 2.35887 23.71 2.21627ZM15 22.9227L12.21 15.6427L17 10.6611L15.59 9.19467L10.76 14.2179L3.8 11.2747L21.33 4.69147L15 22.9227Z" fill="#8EC2F2"/>
</g>
<defs>
<clipPath id="clip0_964_12863">
<rect width="24" height="26" fill="white" transform="translate(0 0.874695)"/>
</clipPath>
</defs>
</svg>
